<svg xmlns="http://www.w3.org/2000/svg" viewBox="0 0 965 402" width="965pt" height="402pt">
<g class="graph" id="graph1" transform="scale(1) rotate(0) translate(4 398)">
<title>Tree</title>
<polygon fill="white" stroke="white" points="-4,5 -4,-398 962,-398 962,5 -4,5" />
<!-- 0 -->
<g class="node" id="node1"><title>0</title>
<polygon fill="#e58139" fill-opacity="0.376471" stroke="black" points="541.154,-393.7 422.846,-393.7 422.846,-318.3 541.154,-318.3 541.154,-393.7" />
<text font-family="Times,serif" font-size="14" text-anchor="middle" x="482" y="-377">is_Mr &lt;= -0.1626</text>
<text font-family="Times,serif" font-size="14" text-anchor="middle" x="482" y="-360.2">gini = 0.473</text>
<text font-family="Times,serif" font-size="14" text-anchor="middle" x="482" y="-343.4">samples = 891</text>
<text font-family="Times,serif" font-size="14" text-anchor="middle" x="482" y="-326.6">value = [549, 342]</text>
</g>
<!-- 1 -->
<g class="node" id="node2"><title>1</title>
<polygon fill="#399de5" fill-opacity="0.568627" stroke="black" points="453.206,-281.7 322.794,-281.7 322.794,-206.3 453.206,-206.3 453.206,-281.7" />
<text font-family="Times,serif" font-size="14" text-anchor="middle" x="388" y="-265">Pclass_3 &lt;= -0.1027</text>
<text font-family="Times,serif" font-size="14" text-anchor="middle" x="388" y="-248.2">gini = 0.4217</text>
<text font-family="Times,serif" font-size="14" text-anchor="middle" x="388" y="-231.4">samples = 374</text>
<text font-family="Times,serif" font-size="14" text-anchor="middle" x="388" y="-214.6">value = [113, 261]</text>
</g>
<!-- 0&#45;&gt;1 -->
<g class="edge" id="edge2"><title>0-&gt;1</title>
<path fill="none" stroke="black" d="M 450.699 -318.372 C 442.855 -309.192 434.352 -299.241 426.213 -289.717" />
<polygon fill="black" stroke="black" points="428.642,-287.172 419.484,-281.844 423.32,-291.72 428.642,-287.172" />
<text font-family="Times,serif" font-size="14" text-anchor="middle" x="417.53" y="-302.5669">True</text>
</g>
<!-- 8 -->
<g class="node" id="node16"><title>8</title>
<polygon fill="#e58139" fill-opacity="0.815686" stroke="black" points="631.903,-281.7 520.097,-281.7 520.097,-206.3 631.903,-206.3 631.903,-281.7" />
<text font-family="Times,serif" font-size="14" text-anchor="middle" x="576" y="-265">Fare &lt;= -0.1195</text>
<text font-family="Times,serif" font-size="14" text-anchor="middle" x="576" y="-248.2">gini = 0.2643</text>
<text font-family="Times,serif" font-size="14" text-anchor="middle" x="576" y="-231.4">samples = 517</text>
<text font-family="Times,serif" font-size="14" text-anchor="middle" x="576" y="-214.6">value = [436, 81]</text>
</g>
<!-- 0&#45;&gt;8 -->
<g class="edge" id="edge16"><title>0-&gt;8</title>
<path fill="none" stroke="black" d="M 513.301 -318.372 C 521.145 -309.192 529.648 -299.241 537.787 -289.717" />
<polygon fill="black" stroke="black" points="540.68,-291.72 544.516,-281.844 535.358,-287.172 540.68,-291.72" />
<text font-family="Times,serif" font-size="14" text-anchor="middle" x="546.47" y="-302.5669">False</text>
</g>
<!-- 2 -->
<g class="node" id="node4"><title>2</title>
<polygon fill="#399de5" fill-opacity="0.866667" stroke="black" points="236.037,-169.7 115.963,-169.7 115.963,-94.2997 236.037,-94.2997 236.037,-169.7" />
<text font-family="Times,serif" font-size="14" text-anchor="middle" x="176" y="-153">isMale &lt;= -0.3089</text>
<text font-family="Times,serif" font-size="14" text-anchor="middle" x="176" y="-136.2">gini = 0.2094</text>
<text font-family="Times,serif" font-size="14" text-anchor="middle" x="176" y="-119.4">samples = 202</text>
<text font-family="Times,serif" font-size="14" text-anchor="middle" x="176" y="-102.6">value = [24, 178]</text>
</g>
<!-- 1&#45;&gt;2 -->
<g class="edge" id="edge4"><title>1-&gt;2</title>
<path fill="none" stroke="black" d="M 322.663 -209.099 C 298.067 -196.336 270.027 -181.788 245.099 -168.853" />
<polygon fill="black" stroke="black" points="246.556,-165.666 236.068,-164.167 243.332,-171.879 246.556,-165.666" />
</g>
<!-- 5 -->
<g class="node" id="node10"><title>5</title>
<polygon fill="#e58139" fill-opacity="0.066667" stroke="black" points="441.117,-169.7 334.883,-169.7 334.883,-94.2997 441.117,-94.2997 441.117,-169.7" />
<text font-family="Times,serif" font-size="14" text-anchor="middle" x="388" y="-153">Fare &lt;= -0.1783</text>
<text font-family="Times,serif" font-size="14" text-anchor="middle" x="388" y="-136.2">gini = 0.4994</text>
<text font-family="Times,serif" font-size="14" text-anchor="middle" x="388" y="-119.4">samples = 172</text>
<text font-family="Times,serif" font-size="14" text-anchor="middle" x="388" y="-102.6">value = [89, 83]</text>
</g>
<!-- 1&#45;&gt;5 -->
<g class="edge" id="edge10"><title>1-&gt;5</title>
<path fill="none" stroke="black" d="M 388 -206.372 C 388 -197.927 388 -188.829 388 -180.011" />
<polygon fill="black" stroke="black" points="391.5,-179.843 388,-169.844 384.5,-179.844 391.5,-179.843" />
</g>
<!-- 3 -->
<g class="node" id="node6"><title>3</title>
<polygon fill="#399de5" fill-opacity="0.945098" stroke="black" points="104.154,-58.4014 -0.154399,-58.4014 -0.154399,0.401379 104.154,0.401379 104.154,-58.4014" />
<text font-family="Times,serif" font-size="14" text-anchor="middle" x="52" y="-41.6">gini = 0.1003</text>
<text font-family="Times,serif" font-size="14" text-anchor="middle" x="52" y="-24.8">samples = 170</text>
<text font-family="Times,serif" font-size="14" text-anchor="middle" x="52" y="-8">value = [9, 161]</text>
</g>
<!-- 2&#45;&gt;3 -->
<g class="edge" id="edge6"><title>2-&gt;3</title>
<path fill="none" stroke="black" d="M 130.882 -94.251 C 119.067 -84.6272 106.366 -74.2822 94.6823 -64.7654" />
<polygon fill="black" stroke="black" points="96.7432,-61.9299 86.7793,-58.3283 92.3224,-67.3574 96.7432,-61.9299" />
</g>
<!-- 4 -->
<g class="node" id="node8"><title>4</title>
<polygon fill="#399de5" fill-opacity="0.117647" stroke="black" points="228.154,-58.4014 123.846,-58.4014 123.846,0.401379 228.154,0.401379 228.154,-58.4014" />
<text font-family="Times,serif" font-size="14" text-anchor="middle" x="176" y="-41.6">gini = 0.498</text>
<text font-family="Times,serif" font-size="14" text-anchor="middle" x="176" y="-24.8">samples = 32</text>
<text font-family="Times,serif" font-size="14" text-anchor="middle" x="176" y="-8">value = [15, 17]</text>
</g>
<!-- 2&#45;&gt;4 -->
<g class="edge" id="edge8"><title>2-&gt;4</title>
<path fill="none" stroke="black" d="M 176 -94.251 C 176 -85.8302 176 -76.8572 176 -68.37" />
<polygon fill="black" stroke="black" points="179.5,-68.3283 176,-58.3283 172.5,-68.3283 179.5,-68.3283" />
</g>
<!-- 6 -->
<g class="node" id="node12"><title>6</title>
<polygon fill="#399de5" fill-opacity="0.380392" stroke="black" points="352.154,-58.4014 247.846,-58.4014 247.846,0.401379 352.154,0.401379 352.154,-58.4014" />
<text font-family="Times,serif" font-size="14" text-anchor="middle" x="300" y="-41.6">gini = 0.4725</text>
<text font-family="Times,serif" font-size="14" text-anchor="middle" x="300" y="-24.8">samples = 128</text>
<text font-family="Times,serif" font-size="14" text-anchor="middle" x="300" y="-8">value = [49, 79]</text>
</g>
<!-- 5&#45;&gt;6 -->
<g class="edge" id="edge12"><title>5-&gt;6</title>
<path fill="none" stroke="black" d="M 355.981 -94.251 C 347.999 -85.0899 339.448 -75.2752 331.491 -66.1436" />
<polygon fill="black" stroke="black" points="333.89,-63.5687 324.682,-58.3283 328.612,-68.1672 333.89,-63.5687" />
</g>
<!-- 7 -->
<g class="node" id="node14"><title>7</title>
<polygon fill="#e58139" fill-opacity="0.901961" stroke="black" points="468.903,-58.4014 371.097,-58.4014 371.097,0.401379 468.903,0.401379 468.903,-58.4014" />
<text font-family="Times,serif" font-size="14" text-anchor="middle" x="420" y="-41.6">gini = 0.1653</text>
<text font-family="Times,serif" font-size="14" text-anchor="middle" x="420" y="-24.8">samples = 44</text>
<text font-family="Times,serif" font-size="14" text-anchor="middle" x="420" y="-8">value = [40, 4]</text>
</g>
<!-- 5&#45;&gt;7 -->
<g class="edge" id="edge14"><title>5-&gt;7</title>
<path fill="none" stroke="black" d="M 399.643 -94.251 C 402.341 -85.7376 405.217 -76.6599 407.932 -68.0904" />
<polygon fill="black" stroke="black" points="411.341,-68.9184 411.025,-58.3283 404.668,-66.8041 411.341,-68.9184" />
</g>
<!-- 9 -->
<g class="node" id="node18"><title>9</title>
<polygon fill="#e58139" fill-opacity="0.890196" stroke="black" points="631.903,-169.7 520.097,-169.7 520.097,-94.2997 631.903,-94.2997 631.903,-169.7" />
<text font-family="Times,serif" font-size="14" text-anchor="middle" x="576" y="-153">Age &lt;= 0.2251</text>
<text font-family="Times,serif" font-size="14" text-anchor="middle" x="576" y="-136.2">gini = 0.18</text>
<text font-family="Times,serif" font-size="14" text-anchor="middle" x="576" y="-119.4">samples = 390</text>
<text font-family="Times,serif" font-size="14" text-anchor="middle" x="576" y="-102.6">value = [351, 39]</text>
</g>
<!-- 8&#45;&gt;9 -->
<g class="edge" id="edge18"><title>8-&gt;9</title>
<path fill="none" stroke="black" d="M 576 -206.372 C 576 -197.927 576 -188.829 576 -180.011" />
<polygon fill="black" stroke="black" points="579.5,-179.843 576,-169.844 572.5,-179.844 579.5,-179.843" />
</g>
<!-- 12 -->
<g class="node" id="node24"><title>12</title>
<polygon fill="#e58139" fill-opacity="0.505882" stroke="black" points="838.117,-169.7 731.883,-169.7 731.883,-94.2997 838.117,-94.2997 838.117,-169.7" />
<text font-family="Times,serif" font-size="14" text-anchor="middle" x="785" y="-153">Fare &lt;= -0.1093</text>
<text font-family="Times,serif" font-size="14" text-anchor="middle" x="785" y="-136.2">gini = 0.4427</text>
<text font-family="Times,serif" font-size="14" text-anchor="middle" x="785" y="-119.4">samples = 127</text>
<text font-family="Times,serif" font-size="14" text-anchor="middle" x="785" y="-102.6">value = [85, 42]</text>
</g>
<!-- 8&#45;&gt;12 -->
<g class="edge" id="edge24"><title>8-&gt;12</title>
<path fill="none" stroke="black" d="M 632.008 -213.522 C 659.939 -198.821 693.81 -180.995 722.574 -165.856" />
<polygon fill="black" stroke="black" points="724.501,-168.797 731.72,-161.042 721.24,-162.603 724.501,-168.797" />
</g>
<!-- 10 -->
<g class="node" id="node20"><title>10</title>
<polygon fill="#e58139" fill-opacity="0.870588" stroke="black" points="599.903,-58.4014 488.097,-58.4014 488.097,0.401379 599.903,0.401379 599.903,-58.4014" />
<text font-family="Times,serif" font-size="14" text-anchor="middle" x="544" y="-41.6">gini = 0.2035</text>
<text font-family="Times,serif" font-size="14" text-anchor="middle" x="544" y="-24.8">samples = 287</text>
<text font-family="Times,serif" font-size="14" text-anchor="middle" x="544" y="-8">value = [254, 33]</text>
</g>
<!-- 9&#45;&gt;10 -->
<g class="edge" id="edge20"><title>9-&gt;10</title>
<path fill="none" stroke="black" d="M 564.357 -94.251 C 561.659 -85.7376 558.783 -76.6599 556.068 -68.0904" />
<polygon fill="black" stroke="black" points="559.332,-66.8041 552.975,-58.3283 552.659,-68.9184 559.332,-66.8041" />
</g>
<!-- 11 -->
<g class="node" id="node22"><title>11</title>
<polygon fill="#e58139" fill-opacity="0.937255" stroke="black" points="716.903,-58.4014 619.097,-58.4014 619.097,0.401379 716.903,0.401379 716.903,-58.4014" />
<text font-family="Times,serif" font-size="14" text-anchor="middle" x="668" y="-41.6">gini = 0.1097</text>
<text font-family="Times,serif" font-size="14" text-anchor="middle" x="668" y="-24.8">samples = 103</text>
<text font-family="Times,serif" font-size="14" text-anchor="middle" x="668" y="-8">value = [97, 6]</text>
</g>
<!-- 9&#45;&gt;11 -->
<g class="edge" id="edge22"><title>9-&gt;11</title>
<path fill="none" stroke="black" d="M 609.474 -94.251 C 617.903 -84.9973 626.94 -75.0769 635.329 -65.8671" />
<polygon fill="black" stroke="black" points="638.049,-68.078 642.196,-58.3283 632.874,-63.3642 638.049,-68.078" />
</g>
<!-- 13 -->
<g class="node" id="node26"><title>13</title>
<polygon fill="#399de5" fill-opacity="0.545098" stroke="black" points="833.903,-58.4014 736.097,-58.4014 736.097,0.401379 833.903,0.401379 833.903,-58.4014" />
<text font-family="Times,serif" font-size="14" text-anchor="middle" x="785" y="-41.6">gini = 0.4297</text>
<text font-family="Times,serif" font-size="14" text-anchor="middle" x="785" y="-24.8">samples = 16</text>
<text font-family="Times,serif" font-size="14" text-anchor="middle" x="785" y="-8">value = [5, 11]</text>
</g>
<!-- 12&#45;&gt;13 -->
<g class="edge" id="edge26"><title>12-&gt;13</title>
<path fill="none" stroke="black" d="M 785 -94.251 C 785 -85.8302 785 -76.8572 785 -68.37" />
<polygon fill="black" stroke="black" points="788.5,-68.3283 785,-58.3283 781.5,-68.3283 788.5,-68.3283" />
</g>
<!-- 14 -->
<g class="node" id="node28"><title>14</title>
<polygon fill="#e58139" fill-opacity="0.611765" stroke="black" points="957.154,-58.4014 852.846,-58.4014 852.846,0.401379 957.154,0.401379 957.154,-58.4014" />
<text font-family="Times,serif" font-size="14" text-anchor="middle" x="905" y="-41.6">gini = 0.4026</text>
<text font-family="Times,serif" font-size="14" text-anchor="middle" x="905" y="-24.8">samples = 111</text>
<text font-family="Times,serif" font-size="14" text-anchor="middle" x="905" y="-8">value = [80, 31]</text>
</g>
<!-- 12&#45;&gt;14 -->
<g class="edge" id="edge28"><title>12-&gt;14</title>
<path fill="none" stroke="black" d="M 828.662 -94.251 C 839.986 -84.7197 852.151 -74.4811 863.368 -65.0402" />
<polygon fill="black" stroke="black" points="865.946,-67.4455 871.343,-58.3283 861.438,-62.0899 865.946,-67.4455" />
</g>
</g>
</svg>